# xmcd
#
# Track frame offsets:
#	150
#	15379
#	43354
#	56510
#	81954
#	99925
#	125916
#	136590
#	170051
#	184307
#	206744
#
# Disc length: 2944 seconds
#
# Revision: 1
# Processed by: cddbd v1.4PL0 Copyright (c) Steve Scherf et al.
# Submitted via: audiograbber 1.81.03
#
DISCID=9a0b7e0b
DTITLE=Joe Kelly - The Blue Shadow
DYEAR=1900
DGENRE=Blues
TTITLE0=Can't Be Satisfied
TTITLE1=Livin' Out On The Street
TTITLE2=Good Time Rockin' Rollers
TTITLE3=Dig
TTITLE4=Houston and Chicago
TTITLE5=Rock Me Baby
TTITLE6=Stuck Down Here In Houston
TTITLE7=Have You Ever Been Busted
TTITLE8=Thoughs In Blue
TTITLE9=Little Red Rooster
TTITLE10=How Many More Years
EXTD=
EXTT0=
EXTT1=
EXTT2=
EXTT3=
EXTT4=
EXTT5=
EXTT6=
EXTT7=
EXTT8=
EXTT9=
EXTT10=
PLAYORDER=
